Tug_of_War_Millard_ISO_states
version=1
nRows=31
nColumns=5
inDegrees=yes

# SIMM Motion File Header:
name Tug_of_War_Millard_ISO_states
datacolumns 5
datarows 31
otherdata 1
range 0.000000 0.500000
endheader
time	/jointset/ground_block/block_tz/value	/jointset/ground_block/block_tz/speed	/forceset/LeftMuscle/activation	/forceset/LeftMuscle/fiber_length
      0.00000000	      0.00000000	      0.50000000	      0.10000000	      0.09799558
      0.00284987	      0.00143949	      0.50848336	      0.09612994	      0.09775308
      0.00671228	      0.00340769	      0.50980525	      0.09318644	      0.09669619
      0.00850015	      0.00431916	      0.50980525	      0.09266711	      0.09615419
      0.00954602	      0.00485235	      0.50980525	      0.09262900	      0.09583772
      0.01059188	      0.00538553	      0.50980525	      0.09359629	      0.09552077
      0.01479203	      0.00752679	      0.50980525	      0.10937532	      0.09420300
      0.01899217	      0.00966804	      0.50980525	      0.13622142	      0.09276169
      0.02563445	      0.01305432	      0.50980525	      0.18782197	      0.09020710
      0.03227674	      0.01644059	      0.50980525	      0.24344737	      0.08736647
      0.04377483	      0.02230237	      0.50980525	      0.34230940	      0.08194850
      0.05527291	      0.02816416	      0.50980525	      0.44197913	      0.07607757
      0.07688664	      0.03918295	      0.50980525	      0.62970620	      0.06426955
      0.08484607	      0.04324071	      0.50980525	      0.69886503	      0.05978832
      0.09935826	      0.05063910	      0.50980525	      0.82496760	      0.05226660
      0.10160626	      0.05178514	      0.50980525	      0.84450188	      0.05126244
      0.10332939	      0.05266360	      0.50980525	      0.85883815	      0.05053458
      0.10505251	      0.05354206	      0.50980525	      0.87173785	      0.04984807
      0.11252213	      0.05735011	      0.50980525	      0.91449684	      0.04748283
      0.12041165	      0.06137223	      0.50980525	      0.94361139	      0.04625560
      0.12830117	      0.06539434	      0.50980525	      0.96252684	      0.04580652
      0.14180604	      0.07227920	      0.50980525	      0.98118608	      0.04548926
      0.15531091	      0.07916405	      0.50980525	      0.99048800	      0.04533276
      0.17257389	      0.08796481	      0.50980525	      0.99600246	      0.04521292
      0.18983687	      0.09676557	      0.50980525	      0.99831599	      0.04513394
      0.21343697	      0.10879702	      0.50980525	      0.99948302	      0.04505895
      0.23703708	      0.12082848	      0.50980525	      0.99984120	      0.04500513
      0.27341304	      0.13937314	      0.50980525	      0.99997615	      0.04494518
      0.31726935	      0.16173131	      0.50980525	      0.99999844	      0.04489394
      0.38450766	      0.19600976	      0.50980525	      1.00000060	      0.04483934
      0.50000000	      0.25488836	      0.50980525	      1.00000060	      0.04477911
